<svg version="1.2" xmlns="http://www.w3.org/2000/svg" viewBox="0 0 720 720" width="720" height="720"><style>.a{fill:#21303b;stroke:#000;stroke-linejoin:round;stroke-width:3}.b{fill:#faf3ed;stroke:#000;stroke-linejoin:round;stroke-width:3}.c{fill:#d88905;stroke:#000;stroke-linejoin:round;stroke-width:3}.d{fill:#cfc0ae;stroke:#000;stroke-linejoin:round;stroke-width:3}.e{fill:#fec805;stroke:#000;stroke-linejoin:round;stroke-width:3}.f{fill:#0a1a27;stroke:#000;stroke-linejoin:round;stroke-width:3}.g{fill:#21303b}.h{fill:#0e1116}.i{fill:#185f79}.j{fill:#fec805}.k{fill:#3d3d3c;stroke:#000;stroke-linejoin:round;stroke-width:3}.l{fill:#0e1116;stroke:#000;stroke-linejoin:round;stroke-width:3}.m{fill:#056886;stroke:#000;stroke-linejoin:round;stroke-width:3}.n{fill:#e35d3d;stroke:#000;stroke-linejoin:round;stroke-width:3}.o{fill:#98251b;stroke:#000;stroke-linejoin:round;stroke-width:3}.p{fill:#fff}</style><path class="a" d="m373 20.2l35.9 15.8 1.8 107.6-39.5 18"/><path  d="m372.9 21.8l0.2-1.8 215.2 15.1-0.1 1.8z"/><path  d="m158.4 232.7l-1.3-1.3 215.3-209.6 1.2 1.3z"/><path  d="m587.4 143.6h1.7v215.3h-1.7z"/><path class="b" d="m588.2 339l71.8 19.9v35.8l-71.8-18.3"/><path class="c" d="m588.2 414.3l-71.7 16.3v-35.9l71.7-19.2"/><path class="c" d="m660 430.6l-71.8 17.6-71.7-17.6 73.1-16.7"/><path class="d" d="m516.5 358.9l71.7-18.9v35.5l-71.7 19.2z"/><path class="e" d="m588 413.5l-0.1-36.8 72.1 18.2v35.5z"/><path class="f" d="m337.1 36l35.9-15.8v139.3l-35.9 20"/><path class="f" d="m552.4 234.9l35.8-19.5v71.7l-35.8 1.5z"/><path class="a" d="m588.2 215.4l35.9 18.8v52.9h-35.9"/><path class="g" d="m581.1 211.8"/><path class="h" d="m536.2 79l40.9-39.1c0 0-0.5-11.8 7.6-14.7 10.1-4.6 13.2 2 16.1 5.4 2.9 3.4 4.9 15.8-3.6 18-6.1 1.5-3-0.6-8.5 2.6-5.6 3.2-52.5 27.8-52.5 27.8z"/><path class="i" d="m37.6 355.3"/><path class="c" d="m191.6 250.2l396.6-200.7v73.2l-394.6 200.3"/><path class="f" d="m373 231.9v35l71.7 20.2-71.7 21.2-71.8-21.2v-19.4"/><path class="a" d="m408.9 215.4v19.5l35.8 16.3v38.1l-71.7-19.6v-39.5"/><path class="e" d="m588.2 50.5l35.9 21.4v71.7l-35.9-19.5"/><path class="j" d="m875.2 179.5"/><path class="e" d="m588.2 120.5l35.9 23.1-394.6 197.3-38-17.9z"/><path class="k" d="m337.1 681.7v-382.5l35.9-12.1 35.9 8.4v386.2z"/><path class="l" d="m373 287.1v394.6h-35.9v-384.6z"/><path class="h" d="m599 143.6c0.7 1.8-1.8 14-9 14.4-7.1 0.3-12 1-14.3-10.8-2.3-11.7 12.5-14.3 12.5-14.3 10.8-0.5 10.1 8.9 10.8 10.7z"/><path class="m" d="m408.9 574.1l107.6 29.9v77.7h-107.6"/><path class="n" d="m265.4 538.2l71.7 18.3v125.2h-71.7"/><path class="o" d="m86 569.8l179.4-31.6v143.5h-179.4z"/><path class="c" d="m86 494.8l179.4-42.5v85.9l-179.4 32.4zm96.9-48"/><path class="e" d="m408.9 502.4l107.6 30.5v70.3l-107.6-29.1z"/><path class="e" d="m265.4 452.3l71.7 14.2v88.7l-71.7-17"/><path class="p" d="m590 143.6c0.2 3.7-1.1 3.5-1.8 3.6-0.6 0.2-3.3 0-3.5-1.8-0.5-4.3 3.5-3.6 3.5-3.6 0 0 1.8 0.8 1.8 1.8z"/><path class="p" d="m591.8 34.2c0.2 3.7-1.1 3.4-1.8 3.6-0.6 0.1-3.4 0-3.5-1.8-0.5-4.3 3.5-3.6 3.5-3.6 0 0 1.8 0.7 1.8 1.8z"/><path class="c" d="m157.7 372.3l71.8 22.4-71.8 21.4-71.7-21.4"/><path class="e" d="m160 229.3l31.3 21.3 2.3 72.4 35.9 13.3v58.4l-71.8-19.5"/><path class="c" d="m86 340l34-17.3v-71.8l40-21.1-2.3 144.5-71.7 21.6z"/></svg>